<svg width="28" height="16" viewBox="0 0 28 16" fill="none" xmlns="http://www.w3.org/2000/svg">
<rect x="0.853516" y="0.703125" width="26.8809" height="15.1242" rx="2.15047" fill="#0060AF"/>
<path fill-rule="evenodd" clip-rule="evenodd" d="M6.38041 9.71364C6.38041 9.51066 6.38337 8.96811 6.37664 8.90127C6.38251 8.09394 5.59198 7.52443 5.09256 7.56883C4.74698 7.5911 4.45729 7.69574 4.30184 7.99674C4.15765 8.27727 4.28657 8.6504 4.76577 8.73795C5.27812 8.83198 5.57739 8.91022 5.79393 9.02059C6.05925 9.15571 6.27585 9.41388 6.2816 9.71397" fill="white"/>
<path fill-rule="evenodd" clip-rule="evenodd" d="M6.16723 9.71431C6.1689 9.45412 5.97333 9.22405 5.71771 9.10041C5.49097 8.99113 5.18657 8.91937 4.6955 8.82686C4.5437 8.79802 4.38491 8.73398 4.33575 8.65234C4.20572 8.74963 4.1821 8.96836 4.20498 9.09623C4.23157 9.24411 4.46437 9.48791 4.81489 9.49746C5.02896 9.50384 5.2996 9.46325 5.42939 9.44278C5.65328 9.40687 6.00752 9.511 6.06391 9.71398" fill="white"/>
<path fill-rule="evenodd" clip-rule="evenodd" d="M6.56102 6.31055C5.96662 6.31055 5.45329 6.60159 5.45508 7.1052C5.45694 7.5287 5.91561 7.75542 6.07934 7.91735C6.32667 8.16138 6.46054 8.45022 6.47439 8.89217C6.48527 9.24391 6.48472 9.59124 6.48713 9.71433H6.61828C6.61605 9.58555 6.61011 9.21682 6.61685 8.88129C6.62576 8.4392 6.76445 8.16138 7.0119 7.91735C7.17706 7.75542 7.6353 7.5287 7.63629 7.1052C7.63857 6.60159 7.12543 6.31055 6.53165 6.31055" fill="white"/>
<path fill-rule="evenodd" clip-rule="evenodd" d="M6.71166 9.71364C6.71166 9.51066 6.70857 8.96811 6.71518 8.90127C6.70937 8.09394 7.49941 7.52443 7.99926 7.56883C8.34484 7.5911 8.63416 7.69574 8.7901 7.99674C8.93411 8.27727 8.8045 8.6504 8.32592 8.73795C7.81321 8.83198 7.51437 8.91022 7.29727 9.02059C7.03226 9.15571 6.83081 9.41388 6.82463 9.71397" fill="white"/>
<path fill-rule="evenodd" clip-rule="evenodd" d="M6.92775 9.71431C6.92589 9.45412 7.12141 9.22405 7.37628 9.10041C7.60401 8.99113 7.90872 8.91937 8.39936 8.82686C8.55147 8.79802 8.71007 8.73398 8.75836 8.65234C8.88901 8.74963 8.91263 8.96836 8.88969 9.09623C8.86261 9.24411 8.63037 9.48791 8.28046 9.49746C8.06652 9.50384 7.79439 9.46325 7.66516 9.44278C7.44213 9.40687 7.0869 9.511 7.03027 9.71398" fill="white"/>
<path fill-rule="evenodd" clip-rule="evenodd" d="M7.1092 10.5553L7.0332 10.1432L7.21678 10.1225C7.26143 10.118 7.31584 10.1238 7.3376 10.1446C7.36166 10.1663 7.36902 10.1842 7.37365 10.2127C7.38064 10.248 7.36691 10.2886 7.31349 10.3089V10.3102C7.3731 10.3102 7.40915 10.342 7.41966 10.3957C7.42114 10.4071 7.42572 10.4345 7.42114 10.4573C7.40902 10.5117 7.36537 10.5293 7.29154 10.5369L7.1092 10.5553ZM7.22761 10.4811C7.24937 10.4788 7.27145 10.4779 7.2887 10.4697C7.31516 10.4569 7.31275 10.4295 7.30904 10.4091C7.29989 10.3645 7.28418 10.3474 7.22031 10.3545L7.18012 10.3591L7.20559 10.4833L7.22761 10.4811ZM7.18899 10.291C7.21329 10.2881 7.24619 10.2859 7.25991 10.2688C7.26715 10.2574 7.2763 10.2483 7.27024 10.2228C7.26276 10.1927 7.24934 10.174 7.19771 10.1812L7.14967 10.187L7.16865 10.2926L7.18899 10.291Z" fill="white"/>
<path fill-rule="evenodd" clip-rule="evenodd" d="M7.90572 10.3071C7.90715 10.3148 7.90882 10.3233 7.90943 10.331C7.92427 10.4061 7.90572 10.4684 7.79195 10.4855C7.62371 10.5095 7.59149 10.4319 7.56193 10.3233L7.54617 10.2645C7.52298 10.1606 7.51303 10.0819 7.67701 10.0576C7.76944 10.0451 7.83054 10.0725 7.85595 10.1408C7.85991 10.151 7.86485 10.161 7.86671 10.1713L7.76611 10.1867C7.75448 10.161 7.73908 10.1151 7.69382 10.119C7.61258 10.1263 7.63941 10.2013 7.64776 10.2327L7.67799 10.3455C7.68708 10.3797 7.70514 10.4342 7.77544 10.4236C7.83251 10.4151 7.8076 10.3491 7.80253 10.322" fill="white"/>
<path fill-rule="evenodd" clip-rule="evenodd" d="M8.06795 10.4317L8.0332 10.0052L8.16831 9.97461L8.45169 10.3455L8.34527 10.3691L8.27812 10.2749L8.15996 10.3012L8.17523 10.4084L8.06795 10.4317ZM8.15047 10.2327L8.23586 10.2144L8.12246 10.0418L8.15047 10.2327Z" fill="white"/>
<path fill-rule="evenodd" clip-rule="evenodd" d="M4.7291 10.1086C4.77139 10.0081 4.80924 9.93401 4.97068 9.96689C5.05706 9.98484 5.11061 10.0131 5.10807 10.0876C5.10764 10.1042 5.10028 10.1211 5.09546 10.1375L4.99498 10.1169C5.00815 10.0757 5.0165 10.0431 4.94824 10.0274C4.86934 10.0114 4.85011 10.0824 4.83922 10.1131L4.79835 10.2249C4.78537 10.2581 4.76979 10.3129 4.83922 10.3271C4.89661 10.3385 4.93136 10.2968 4.95213 10.2357L4.88189 10.2218L4.90619 10.1572L5.07147 10.1966L4.993 10.4121L4.91695 10.3968L4.93408 10.3512H4.93191C4.89685 10.3885 4.85419 10.3924 4.81678 10.387C4.6515 10.3539 4.66875 10.2737 4.7082 10.1665" fill="white"/>
<path fill-rule="evenodd" clip-rule="evenodd" d="M5.34346 10.291L5.29368 10.4663L5.18164 10.4484L5.30104 10.0391L5.49204 10.0711C5.60383 10.089 5.63759 10.1259 5.62177 10.2021C5.61274 10.2457 5.58374 10.2927 5.51294 10.2889L5.5122 10.2882C5.57205 10.3037 5.57712 10.3262 5.56667 10.3649C5.56216 10.3814 5.53106 10.4814 5.55251 10.4976L5.55325 10.5099L5.43732 10.4874C5.4325 10.4597 5.44894 10.4099 5.45544 10.3822C5.46193 10.3578 5.47238 10.3234 5.43899 10.3105C5.41289 10.3001 5.40312 10.3006 5.37357 10.2956L5.34346 10.291ZM5.36225 10.2274L5.43768 10.2425C5.4835 10.2474 5.50897 10.2298 5.518 10.1887C5.52616 10.151 5.51559 10.1363 5.47447 10.129L5.3936 10.1168L5.36225 10.2274Z" fill="white"/>
<path fill-rule="evenodd" clip-rule="evenodd" d="M6.06171 10.1303L6.17251 10.1399L6.12478 10.4277C6.10159 10.5189 6.0541 10.5587 5.91894 10.5463C5.78142 10.5334 5.74877 10.4869 5.75706 10.3949L5.80516 10.1074L5.91683 10.1169L5.86891 10.398C5.86378 10.4285 5.85432 10.4737 5.92741 10.4792C5.99227 10.4829 6.00698 10.4509 6.01434 10.4113" fill="white"/>
<path fill-rule="evenodd" clip-rule="evenodd" d="M6.29492 10.5638L6.32831 10.1523L6.54114 10.1592C6.6418 10.1629 6.66808 10.2239 6.66499 10.2821C6.66202 10.3175 6.64718 10.357 6.60563 10.3785C6.57156 10.3967 6.52772 10.401 6.48716 10.3995L6.41778 10.3967L6.40393 10.5691L6.29492 10.5638ZM6.42093 10.3344L6.47732 10.3367C6.52314 10.3379 6.55349 10.3245 6.55745 10.2745C6.55974 10.2266 6.53525 10.2184 6.4759 10.2165L6.43125 10.2153L6.42093 10.3344Z" fill="white"/>
<path fill-rule="evenodd" clip-rule="evenodd" d="M21.3099 6.70711L20.4638 7.84749C20.1445 7.65488 19.7545 7.5132 19.257 7.5132C18.0795 7.5132 17.6012 8.16488 17.6012 8.62396C17.6012 8.96477 17.9017 9.46752 18.9494 9.46752C19.3892 9.46752 20.0143 9.24039 20.1942 9.13699L19.3575 10.46C18.9586 10.5191 18.8275 10.5557 18.4899 10.5635C16.6146 10.605 15.8569 9.74965 15.8574 8.87566C15.8587 7.72017 17.2422 6.31497 19.5357 6.31497C19.6762 6.31497 19.8481 6.3511 19.9951 6.39109L20.1437 6.25" fill="white"/>
<path fill-rule="evenodd" clip-rule="evenodd" d="M24.8015 6.28711L25.0411 10.4317H23.2579L23.257 9.72092H22.041L21.6409 10.4317H19.707L21.7288 7.47212L21.2729 7.46991L22.1391 6.28711H24.8015ZM23.2453 7.55555L22.5579 8.76108H23.266L23.2453 7.55555Z" fill="white"/>
<path fill-rule="evenodd" clip-rule="evenodd" d="M14.7299 6.28679C15.613 6.29046 16.112 6.64638 16.112 7.16046C16.112 7.63446 15.5857 8.05397 15.008 8.27091C15.6028 8.4333 15.6542 8.83182 15.6542 9.11373C15.6542 9.79493 14.7338 10.4314 13.5373 10.4314H10.9277L11.9456 7.51303L11.5275 7.51123L12.3822 6.28679C12.3822 6.28679 14.0119 6.28312 14.7299 6.28679V6.28679ZM13.8635 7.96727C14.0461 7.96727 14.3686 7.93293 14.4493 7.67044C14.5376 7.38546 14.2349 7.37779 14.0898 7.37779L13.571 7.37614L13.3901 7.96727H13.8635ZM13.1302 8.69918L12.8913 9.38035H13.5022C13.7425 9.38035 14.07 9.29173 14.1503 9.07007C14.2295 8.8478 14.0006 8.69918 13.7612 8.69918H13.1302Z" fill="white"/>
<path fill-rule="evenodd" clip-rule="evenodd" d="M6.58353 10.9404C5.67997 10.9404 4.75149 10.7752 3.82419 10.4484L3.80144 10.4401L3.79055 10.4229C3.37442 9.77062 3.1543 9.05728 3.1543 8.35931C3.1543 7.66236 3.36539 6.9795 3.78177 6.32813L3.79327 6.31082L3.81646 6.30219C4.67426 6.00045 5.59699 5.84766 6.56003 5.84766C7.45704 5.84766 8.41513 6.01776 9.33013 6.34053L9.35356 6.34829L9.36445 6.36592C9.78849 7.03018 10.0121 7.74339 10.0121 8.42983C10.0121 9.11352 9.7974 9.79702 9.37279 10.4609L9.36166 10.4783L9.33804 10.4864C8.49329 10.7833 7.54076 10.9404 6.58353 10.9404M3.90955 10.3594C4.81033 10.6741 5.70882 10.833 6.58307 10.833C7.51006 10.833 8.43192 10.6825 9.25262 10.3973C9.66028 9.75403 9.86693 9.09197 9.86693 8.43032C9.86693 7.76592 9.65126 7.07489 9.24329 6.43013C8.35531 6.12018 7.42795 5.95581 6.55957 5.95581C5.62726 5.95581 4.73359 6.10264 3.90176 6.39235C3.50245 7.02365 3.2992 7.6852 3.2992 8.3598C3.2992 9.03559 3.51036 9.72694 3.90955 10.3594Z" fill="white"/>
</svg>
