<svg width="31" height="23" viewBox="0 0 31 23" fill="none" xmlns="http://www.w3.org/2000/svg">
<rect x="0.730469" y="0.587891" width="30.1986" height="21.5704" rx="1.72563" fill="white"/>
<path fill-rule="evenodd" clip-rule="evenodd" d="M5.62907 13.3959L6.65393 14.665H4.11656L5.62907 13.3959ZM5.30682 13.004L3.32197 14.669L3.32116 10.5741L5.30682 13.004ZM10.0831 8.88018C10.0831 8.88018 9.64735 8.6739 9.14115 8.70403C8.56243 8.73811 8.07828 8.96005 7.79995 9.2529C7.62482 9.43688 7.43121 9.66133 7.33395 9.90507C7.19292 10.2577 7.16281 10.7236 7.16281 10.7236C7.16281 10.7236 6.96041 10.5518 6.70682 10.0513C6.41197 9.46903 6.33131 9.11633 6.29136 8.71396C6.25579 8.36086 6.31162 8.01172 6.31162 8.01172H10.0831V8.88018ZM10.0823 10.0415V12.6235C10.0823 12.6235 9.84787 12.7136 9.65662 12.7136C9.46537 12.7136 9.13968 12.6852 8.76141 12.4773C8.38591 12.271 8.17806 12.0214 8.01692 11.7953C7.8535 11.5653 7.71857 11.2464 7.67845 11.0166C7.64622 10.8328 7.61147 10.3743 7.79922 10.0017C7.90111 9.79945 8.17456 9.45281 8.70102 9.4331C9.13016 9.41662 9.36812 9.52945 9.58623 9.64914C10.0013 9.87738 10.0823 10.0415 10.0823 10.0415V10.0415ZM5.976 12.4418L6.65629 11.8748C6.43948 11.5978 6.38219 11.4935 6.13983 11.1359C5.89169 10.77 5.68384 10.3674 5.5061 9.89498C5.31371 9.38326 5.26724 9.09598 5.28848 8.71396C5.31509 8.22792 5.42561 8.01172 5.42561 8.01172H3.32031L3.32129 9.14638C3.32129 9.14638 4.93284 11.166 5.976 12.4418V12.4418ZM7.91977 14.6625H10.0827V13.0854C10.0827 13.0854 9.54621 13.3315 9.19748 13.3514C8.98987 13.3635 8.78837 13.3715 8.46324 13.285C8.10182 13.189 7.89649 13.0954 7.56152 12.8191C7.29247 12.5975 6.98484 12.2702 6.98484 12.2702L6.30057 12.8407C6.61805 13.229 6.85251 13.5117 6.92429 13.5878C7.2329 13.9139 7.36368 14.0338 7.57153 14.15C7.7793 14.2664 8.4735 14.2601 8.4735 14.2601L7.91977 14.6625Z" fill="#E94E0F"/>
<path fill-rule="evenodd" clip-rule="evenodd" d="M26.4399 13.2624C26.4399 13.7193 26.5015 14.4705 25.9898 14.6533V14.6838H27.9334V14.6533C27.422 14.4604 27.4833 13.7193 27.4833 13.2624V9.43521C27.4833 8.97849 27.422 8.22722 27.9334 8.03435V8.00391H25.9898V8.03435C26.5115 8.22722 26.4399 8.96831 26.4399 9.43521V13.2624ZM19.3126 9.43521L22.8214 13.8513C23.2714 14.4298 23.5887 14.765 24.315 15.0085V9.31342C24.315 8.745 24.315 8.33884 24.8471 8.03435V8.00391H23.0465V8.03435C23.5887 8.33884 23.5783 8.745 23.5783 9.31342V13.1609L19.8344 8.4708L19.691 8.26776C19.6196 8.18659 19.5787 8.13587 19.5378 8.01408V8.00391H18.044V8.03435C18.576 8.33884 18.576 8.745 18.576 9.31342V13.3641C18.576 13.9325 18.576 14.3385 18.034 14.6533V14.6838H19.8447V14.6533C19.3024 14.3385 19.3126 13.9325 19.3126 13.3641V9.43521ZM13.5935 10.6941V8.70437L14.2788 8.63314C14.8926 8.57224 15.5472 8.93778 15.5472 9.63833C15.5472 10.4708 14.5958 10.6941 13.9311 10.6941H13.5935ZM13.5935 13.8717V11.3641L14.3095 11.3236C15.2097 11.2728 16.1713 11.6993 16.1713 12.684C16.1713 13.6484 15.3224 14.0341 14.4834 13.9529L13.5935 13.8717ZM12.5498 13.2523C12.5498 13.7193 12.6113 14.4604 12.0996 14.6533V14.6838H13.7876C14.5548 14.6838 15.3632 14.7143 16.0791 14.3691C16.7645 14.0442 17.3067 13.3741 17.3067 12.5924C17.3067 11.5977 16.5598 10.9885 15.6391 10.7954C16.2223 10.5418 16.662 10.156 16.662 9.47583C16.662 8.57232 15.8746 8.00391 14.5243 8.00391H12.0996V8.03435C12.6216 8.22722 12.5498 8.96831 12.5498 9.42503V13.2523Z" fill="#005B6A"/>
</svg>
