<svg width="28" height="16" viewBox="0 0 28 16" fill="none" xmlns="http://www.w3.org/2000/svg">
<rect x="0.853516" y="0.363281" width="26.8809" height="15.1242" rx="2.15047" fill="#00529C"/>
<path fill-rule="evenodd" clip-rule="evenodd" d="M8.82031 6.92383H10.1015C10.6203 6.92383 11.0071 7.10464 11.0071 7.48529C11.0071 7.76438 10.8278 7.9198 10.5163 8.00215V8.00843C10.8875 8.06886 11.0791 8.22747 11.0791 8.4969C11.0791 9.0267 10.4923 9.13762 9.9935 9.13762H8.82031V6.92383ZM9.56269 7.79961H9.77041C10.0138 7.79961 10.2654 7.75201 10.2654 7.56473C10.2654 7.362 10.0259 7.34279 9.77818 7.34279H9.56269V7.79961ZM9.56269 8.71881H9.78255C10.0537 8.71881 10.337 8.68705 10.337 8.46183C10.337 8.22097 10.0458 8.19857 9.79033 8.19857H9.56269V8.71881Z" fill="white"/>
<path fill-rule="evenodd" clip-rule="evenodd" d="M12.0536 6.92383H12.9636L14.0372 9.13762H13.2229L13.0156 8.66517H11.9699L11.7503 9.13762H10.9961L12.0536 6.92383ZM12.509 7.38059H12.5006L12.1417 8.24653H12.84L12.509 7.38059Z" fill="white"/>
<path fill-rule="evenodd" clip-rule="evenodd" d="M14.1426 6.92383H15.0884L16.0303 8.4273H16.038L16.0263 6.92383H16.7049V9.13762H15.783L14.8089 7.62479H14.8012L14.825 9.13762H14.1426V6.92383Z" fill="white"/>
<path fill-rule="evenodd" clip-rule="evenodd" d="M16.9551 6.92383H17.6973V7.828H17.7053L18.5431 6.92383H19.4374L18.4075 7.95456L19.5172 9.13762H18.571L17.7053 8.13228H17.6973V9.13762H16.9551V6.92383Z" fill="white"/>
<path fill-rule="evenodd" clip-rule="evenodd" d="M20.4375 6.92383H21.7187C22.2374 6.92383 22.6246 7.10464 22.6246 7.48529C22.6246 7.76438 22.4453 7.9198 22.1339 8.00215V8.00843C22.505 8.06886 22.6965 8.22747 22.6965 8.4969C22.6965 9.0267 22.1098 9.13762 21.6112 9.13762H20.4375V6.92383ZM21.1799 7.79961H21.3872C21.6308 7.79961 21.882 7.75201 21.882 7.56473C21.882 7.362 21.6428 7.34279 21.3955 7.34279H21.1799V7.79961ZM21.1799 8.71881H21.3995C21.6706 8.71881 21.9541 8.68705 21.9541 8.46183C21.9541 8.22097 21.6629 8.19857 21.4074 8.19857H21.1799V8.71881Z" fill="white"/>
<path fill-rule="evenodd" clip-rule="evenodd" d="M22.8613 6.92383H24.1864C24.6811 6.92383 25.0844 7.10136 25.0844 7.4822C25.0844 7.77712 24.9088 7.97377 24.5497 8.04028V8.04656C24.7886 8.09743 24.8049 8.26541 24.9446 8.53504L25.2161 9.13762H24.4419L24.2822 8.73825C24.1305 8.3576 24.0346 8.26222 23.7593 8.26222H23.6035V9.13762H22.8613V6.92383ZM23.6037 7.84401H23.7994C24.0388 7.84401 24.3423 7.83755 24.3423 7.58703C24.3423 7.38102 24.0825 7.34279 23.7994 7.34279H23.6037V7.84401Z" fill="white"/>
<mask id="mask0_14463_11113" style="mask-type:luminance" maskUnits="userSpaceOnUse" x="2" y="5" width="25" height="6">
<path fill-rule="evenodd" clip-rule="evenodd" d="M2.38867 10.2568H26.1629V5.80859H2.38867V10.2568Z" fill="white"/>
</mask>
<g mask="url(#mask0_14463_11113)">
<path fill-rule="evenodd" clip-rule="evenodd" d="M25.4219 9.13762H26.1641V6.92383H25.4219V9.13762Z" fill="white"/>
<path fill-rule="evenodd" clip-rule="evenodd" d="M7.12747 5.80859H3.24251C2.77095 5.80859 2.38867 6.11993 2.38867 6.50405V6.51139V9.56158C2.38867 9.94194 2.7639 10.2511 3.22939 10.2568H7.1254C7.59708 10.2568 7.97948 9.94551 7.97948 9.56158L7.9813 6.50405C7.9813 6.11993 7.59915 5.80859 7.12747 5.80859V5.80859ZM3.70479 9.90001L3.49282 9.90184C3.23627 9.90184 3.02831 9.73435 3.02831 9.52766L3.02709 9.49822V6.6745L3.02843 6.52245C3.03803 6.32243 3.22922 6.16141 3.4797 6.16141H3.91057C4.30098 6.16141 4.61766 6.43123 4.61766 6.74961C4.61766 6.90696 4.54004 7.04984 4.41432 7.15371L3.31498 8.04022L4.34532 8.87401C4.47821 8.98281 4.55851 9.12587 4.55851 9.28255C4.55851 9.62362 4.17623 9.90001 3.70479 9.90001V9.90001ZM6.87194 9.89721L4.95096 9.89653C4.95096 9.89653 5.17313 9.51502 5.17313 9.27889C5.17313 8.99101 5.0519 8.73374 4.86228 8.56354L4.20523 8.03124L4.87589 7.48059C5.07547 7.33144 5.20812 7.06673 5.20812 6.76525C5.20812 6.52651 5.12503 6.315 4.99129 6.16141H5.45677C5.84731 6.16141 6.16399 6.43123 6.16399 6.74961C6.16399 6.90696 6.08649 7.04984 5.96076 7.15371L4.88244 8.03095L7.12205 9.84595C7.05111 9.88147 6.96158 9.89721 6.87194 9.89721V9.89721ZM7.34121 9.33099L5.73618 8.03102L6.50061 7.41357C6.65634 7.25901 6.75498 7.02606 6.75498 6.7657C6.75498 6.52542 6.67068 6.30879 6.53572 6.15511L6.87791 6.16321C7.13446 6.16321 7.34242 6.331 7.34242 6.53759L7.34121 9.33099Z" fill="white"/>
</g>
</svg>
