<svg width="116" height="116" viewBox="0 0 116 116" fill="none" xmlns="http://www.w3.org/2000/svg">
<path d="M58 0.5C50.449 0.5 42.9719 1.98728 35.9957 4.87693C29.0195 7.76657 22.6807 12.002 17.3414 17.3414C6.55802 28.1247 0.5 42.7501 0.5 58C0.5 73.2499 6.55802 87.8753 17.3414 98.6586C22.6807 103.998 29.0195 108.233 35.9957 111.123C42.9719 114.013 50.449 115.5 58 115.5C73.2499 115.5 87.8753 109.442 98.6586 98.6586C109.442 87.8753 115.5 73.2499 115.5 58C115.5 50.449 114.013 42.9719 111.123 35.9957C108.233 29.0195 103.998 22.6807 98.6586 17.3414C93.3193 12.002 86.9805 7.76657 80.0043 4.87693C73.0281 1.98728 65.551 0.5 58 0.5ZM82.15 82.15L52.25 63.75V29.25H60.875V59.15L86.75 74.675L82.15 82.15Z" fill="#1BA0E2"/>
</svg>
