<svg width="28" height="16" viewBox="0 0 28 16" fill="none" xmlns="http://www.w3.org/2000/svg">
<rect x="0.853516" y="0.255859" width="26.8809" height="15.1242" rx="2.15047" fill="#003D79"/>
<path fill-rule="evenodd" clip-rule="evenodd" d="M2.79964 8.26505C2.79964 7.99382 2.79358 7.7662 2.77539 7.56324H3.40646L3.43605 7.91193H3.45376C3.59679 7.72767 3.85837 7.50977 4.34628 7.50977C4.72712 7.50977 5.02459 7.68445 5.14932 7.94577H5.16156C5.26288 7.81509 5.38148 7.71834 5.51821 7.65031C5.67901 7.55846 5.86352 7.50977 6.1015 7.50977C6.5833 7.50977 7.07085 7.77597 7.07085 8.53125V9.92041H6.35701V8.61852C6.35701 8.22647 6.1907 7.99382 5.83987 7.99382C5.58958 7.99382 5.40495 8.1393 5.32812 8.30881C5.31005 8.36672 5.29223 8.43939 5.29223 8.50668V9.92041H4.57815V8.55537C4.57815 8.22647 4.41777 7.99382 4.07859 7.99382C3.80489 7.99382 3.62068 8.16836 3.55508 8.33259C3.52512 8.39105 3.51312 8.45863 3.51312 8.52627V9.92041H2.79964V8.26505Z" fill="white"/>
<path fill-rule="evenodd" clip-rule="evenodd" d="M9.85162 9.35412C9.85162 9.56699 9.86351 9.77478 9.89328 9.92041H9.23268L9.18526 9.6591H9.16719C8.98881 9.84321 8.6854 9.97369 8.31062 9.97369C7.72745 9.97369 7.40039 9.63029 7.40039 9.27188C7.40039 8.67629 8.04862 8.37644 9.11959 8.38123V8.34235C9.11959 8.1874 9.04217 7.93102 8.5306 7.93102C8.24489 7.93102 7.94731 8.00369 7.7511 8.10516L7.60812 7.71825C7.8227 7.61154 8.19784 7.50977 8.65557 7.50977C9.58405 7.50977 9.85162 7.98928 9.85162 8.50214V9.35412ZM9.13715 8.76839C8.61964 8.75862 8.12596 8.85058 8.12596 9.20884C8.12596 9.44095 8.31035 9.54765 8.54246 9.54765C8.83362 9.54765 9.04814 9.3927 9.11338 9.22334C9.13109 9.17978 9.13715 9.13119 9.13715 9.09261V8.76839Z" fill="white"/>
<path fill-rule="evenodd" clip-rule="evenodd" d="M10.3579 8.26505C10.3579 7.99382 10.3513 7.7662 10.334 7.56324H10.976L11.0119 7.91656H11.0295C11.1545 7.73285 11.4698 7.50977 11.9516 7.50977C12.4575 7.50977 12.981 7.77597 12.981 8.52158V9.92041H12.2493V8.58951C12.2493 8.25045 12.0947 7.99382 11.696 7.99382C11.4045 7.99382 11.2023 8.16328 11.1247 8.34245C11.1013 8.39583 11.0951 8.4686 11.0951 8.53589V9.92041H10.3579V8.26505Z" fill="white"/>
<path fill-rule="evenodd" clip-rule="evenodd" d="M16.1526 6.61719V9.25822C16.1526 9.50019 16.1643 9.76205 16.1763 9.92159H15.5218L15.4925 9.54893H15.4804C15.3078 9.81045 14.9562 9.97487 14.5343 9.97487C13.8444 9.97487 13.2969 9.49575 13.2969 8.76967C13.2909 7.9806 13.8977 7.51095 14.5937 7.51095C14.9922 7.51095 15.278 7.64666 15.4087 7.82105H15.4207V6.61719H16.1526ZM15.4206 8.54644C15.4206 8.49854 15.4144 8.44018 15.403 8.39193C15.3374 8.15958 15.1053 7.97068 14.7721 7.97068C14.3021 7.97068 14.0403 8.3097 14.0403 8.75019C14.0403 9.18086 14.3021 9.49556 14.7661 9.49556C15.0635 9.49556 15.3254 9.33103 15.3967 9.07455C15.4144 9.02108 15.4206 8.96306 15.4206 8.89991V8.54644Z" fill="white"/>
<path fill-rule="evenodd" clip-rule="evenodd" d="M16.6699 9.92147H17.4084V7.56445H16.6699V9.92147Z" fill="white"/>
<path fill-rule="evenodd" clip-rule="evenodd" d="M17.9263 8.32292C17.9263 8.00359 17.9201 7.77577 17.9023 7.563H18.5391L18.5623 8.01301H18.587C18.7296 7.67903 19.0688 7.563 19.378 7.563C19.4492 7.563 19.4908 7.55308 19.5505 7.563V8.08593C19.4908 8.07626 19.4255 8.06659 19.3363 8.06659C18.9853 8.06659 18.7472 8.25035 18.6818 8.51641C18.6702 8.56968 18.6582 8.63288 18.6582 8.70096V9.92032H17.9263V8.32292Z" fill="white"/>
<path fill-rule="evenodd" clip-rule="evenodd" d="M19.8906 9.92147H20.628V7.56445H19.8906V9.92147Z" fill="white"/>
<path fill-rule="evenodd" clip-rule="evenodd" d="M19.7144 4.71477C19.2714 4.92345 18.2267 5.41096 17.8367 5.5925V5.5925C17.5991 5.69102 17.0486 5.73404 16.7372 5.39246V5.39246C16.7316 5.38629 16.3231 4.97096 16.3064 4.95532V4.95532C16.2947 4.94427 16.0306 4.62553 15.4421 4.61556V4.61556C15.3551 4.61389 14.9228 4.61201 14.501 4.80707V4.80707C13.9403 5.0677 12.6363 5.67425 12.6363 5.67425V5.67425C12.636 5.67425 12.636 5.67479 12.6353 5.67479V5.67479C12.0993 5.92431 11.6816 6.11859 11.6816 6.11859V6.11859L12.1751 6.61167C12.4059 6.84486 12.9264 7.02527 13.3779 6.81442V6.81442C13.3779 6.81442 15.0458 6.02855 15.052 6.02628V6.02628C15.7733 5.70439 16.3299 5.70439 16.6994 5.82417V5.82417C17.031 5.93818 17.3195 6.22223 17.3195 6.22223V6.22223C17.3195 6.22223 17.6965 6.60239 17.763 6.66889V6.66889C17.9775 6.88374 18.3326 6.79933 18.3326 6.79933V6.79933C18.3326 6.79933 18.4642 6.78719 18.6625 6.69139V6.69139C18.6625 6.69139 20.2781 5.9292 20.2792 5.92895V5.92895C20.7922 5.68406 21.2627 5.63833 21.5032 5.65634V5.65634C22.2564 5.71203 22.4904 6.14014 22.8169 6.4388V6.4388C23.0093 6.61448 23.1828 6.71423 23.4482 6.7092V6.7092C23.6226 6.70619 23.8196 6.62015 23.8486 6.60461V6.60461L25.7833 5.6962C25.7833 5.6962 25.5848 5.45294 25.1782 5.07446V5.07446C24.8144 4.73677 24.4279 4.88956 24.1198 5.01373V5.01373C23.9903 5.06582 23.5213 5.31969 23.0566 5.4968V5.4968C22.7254 5.62294 22.2498 5.585 21.9892 5.32295V5.32295C21.9736 5.30701 21.5519 4.89163 21.5076 4.84052V4.84052C21.3374 4.66707 21.0053 4.51172 20.5797 4.51172V4.51172C20.3209 4.51172 20.0272 4.56914 19.7144 4.71477" fill="url(#paint0_linear_14463_11129)"/>
<defs>
<linearGradient id="paint0_linear_14463_11129" x1="11.6816" y1="6.9078" x2="25.7833" y2="6.9078" gradientUnits="userSpaceOnUse">
<stop stop-color="#FFCA06"/>
<stop offset="0.330844" stop-color="#FBAA18"/>
<stop offset="0.694742" stop-color="#FFC907"/>
<stop offset="1" stop-color="#FAA619"/>
</linearGradient>
</defs>
</svg>
